<?xml version="1.0" encoding="utf-8"?>
<!-- Generator: Adobe Illustrator 23.0.0, SVG Export Plug-In . SVG Version: 6.00 Build 0)  -->
<svg version="1.1" id="car" xmlns="http://www.w3.org/2000/svg" xmlns:xlink="http://www.w3.org/1999/xlink" x="0px" y="0px"
	 viewBox="0 0 634.38 306.14" style="enable-background:new 0 0 634.38 306.14;" xml:space="preserve">
<style type="text/css">
	.st0{fill:#FE4541;}
	.st1{fill:#A32F2B;}
	.st2{fill:#B9FFF8;}
</style>

	<path class="st0" d="M115.31,102.21c0.01,0,0.01-0.01,0.02-0.01c0.01-0.03,0.01-0.05,0.01-0.07L115.31,102.21z"/>
	<path class="st1" d="M634.38,203.98c0,0-127.9-29.74-163.23-29.3c-12.74,0.15-15.95,3.92-27.53-4.23
		c-16.03-11.28-76.84-59.81-94.09-69.22c-0.42-0.23-153.61-2.43-194.57-2.21c-15.7,0.08-137.68,63.12-152.27,63.85
		c-10.91,0,23.09,78.76,19.09,78.76c-4.55,0-11,1.33-17.11,1.33c-4.55,0-5.61,11.46-3.89,15.67c0.34-0.39,8-2,17.24-3.43
		c7.67-1.19,7.76-4.57,12.32,7.7c8.57,23.07,11.94-49.67,68.94-49.67c54,0,51.95,40.89,51.95,59.28c0,0.46,305,0.48,308.83,0.39
		c0.2-5.35-3.78-57.97,55.9-57.97c56.29,0,54.76,58.18,54.76,58.18l45.93,0.05L634.38,203.98z"/>
	<polygon class="st2" points="363.59,172.02 237.17,172.02 239.86,113.22 335.64,113.22 	"/>
	<polygon class="st2" points="418.8,172.02 371.29,172.02 342.28,113.22 	"/>
	<polygon class="st2" points="129.8,111.34 77.79,169.14 25.28,160.14 	"/>
	<polygon class="st2" points="227.36,113.22 221.99,172.02 92.99,172.02 141.77,113.22 	"/>
	<circle cx="99.28" cy="262.14" r="44"/>
	<circle cx="515.28" cy="262.14" r="44"/>

		<path class="st1" d="M604.38,197.26H7.98c0.45,1.36,0.9,2.72,1.36,4.09h613.49C617.89,200.24,611.61,198.84,604.38,197.26z"/>
		<path class="st1" d="M142.51,230.97c0.95,1.35,1.8,2.75,2.55,4.18h324.55c0.99-1.43,2.09-2.83,3.29-4.18H142.51z"/>
		<path class="st1" d="M30.34,262.92c2.68,7.23,4.86,5.05,8.33-1.34h-8.83C29.99,262,30.16,262.44,30.34,262.92z"/>
		<path class="st1" d="M570.72,273.13l45.93,0.05l2.97-11.61H569.7C570.84,268.37,570.72,273.13,570.72,273.13z"/>
		<path class="st1" d="M151.22,272.53c0,0.46,305,0.48,308.83,0.39c0.05-1.34-0.16-5.65,0.43-11.35H151.12
			C151.28,265.67,151.22,269.42,151.22,272.53z"/>
		<path class="st1" d="M559.34,235.14h67.06l1.07-4.18h-71.44C557.22,232.32,558.32,233.71,559.34,235.14z"/>
		<path class="st1" d="M58.25,230.97H19.48c0.5,1.53,0.94,2.93,1.31,4.18h33.8C55.75,233.73,56.96,232.33,58.25,230.97z"/>
		<path class="st0" d="M20.8,235.14c1.21,4.04,4.96,15.76,9.03,26.43h8.83c3.44-6.34,8.17-16.84,15.93-26.43H20.8z"/>
		<path class="st0" d="M241.48,261.58h219.01c0.79-7.57,3-19.61,9.12-28.43h-234.9"/>
		<path class="st0" d="M230.5,235.14h-85.44c4.48,8.5,5.73,18.15,6.06,26.43h86.05"/>
		<path class="st0" d="M559.34,236.14c6.28,8.84,9.1,18.89,10.36,26.43h39.92l6.77-27.43L559.34,236.14z"/>
		<path class="st0" d="M233.09,230.97H472.9c8.13-9.08,21.4-16.01,43.06-16.01c19.43,0,31.97,6.93,40.06,16.01h61.44
			c0,0,12.6-25.99,5.36-27.62l-393.19-1.9"/>
		<path class="st0" d="M223.25,202.4L9.34,201.35c3.66,10.89,7.62,21.87,10.15,29.62h38.76c9.24-9.79,22.21-17.72,41.03-17.72
			c23.28,0,36.13,7.6,43.23,17.72h85.4"/>
		<path class="st0" d="M229.64,199.26h354.75c-28.28-6.17-70.86-17.04-102.05-21.61H229.64"/>
		<path class="st0" d="M223.25,177.65H2.2c1.37,5.7,3.46,12.54,5.78,19.61h215.27"/>

</svg>
