<?xml version="1.0" encoding="utf-8"?>
<!-- Generator: Adobe Illustrator 23.0.1, SVG Export Plug-In . SVG Version: 6.00 Build 0)  -->
<svg version="1.1" id="Layer_2" xmlns="http://www.w3.org/2000/svg" xmlns:xlink="http://www.w3.org/1999/xlink" x="0px" y="0px"
	 viewBox="0 0 1600.4 269.8" style="enable-background:new 0 0 1600.4 269.8;" xml:space="preserve">
<style type="text/css">
	.st0{clip-path:url(#SVGID_2_);fill:url(#SVGID_3_);}
</style>
<defs>
	<path id="SVGID_1_" d="M12.7,261V88.2c0-1.4,0.5-2.5,1.4-3.5c0.9-1,2.1-1.5,3.5-1.5h59.3c15.4,0,28.4,4.6,38.9,13.9
		c10.5,9.3,15.7,20.8,15.7,34.5c0,9.1-2.9,17.4-8.6,24.9c-5.7,7.5-12.1,12.9-19,16.3c3.6,1.2,7.1,2.9,10.7,5.2
		c3.6,2.3,7,5.1,10.4,8.5c3.4,3.4,6.1,7.6,8.1,12.6c2.1,5,3.1,10.3,3.1,16c0,14.6-5.4,26.7-16.2,36.3c-10.8,9.6-24.1,14.5-40,14.5
		H17.6c-1.4,0-2.6-0.5-3.5-1.5C13.2,263.6,12.7,262.4,12.7,261z M46.7,160.1h27.8c6.5,0,11.9-2.3,16.1-6.8
		c4.2-4.5,6.3-10.1,6.3-16.7c0-6.5-2.1-11.8-6.2-15.9c-4.2-4.1-9.5-6.1-16.1-6.1H46.7V160.1z M46.7,234.6h31.4
		c6.5,0,12.1-2.3,16.7-6.8c4.6-4.5,6.9-10.1,6.9-16.8c0-6.4-2.7-11.7-8.1-16.1c-5.4-4.4-11.5-6.5-18.5-6.5H46.7V234.6z M161.2,261
		v-94.4c0-1.4,0.5-2.6,1.5-3.6c1-0.9,2.1-1.4,3.5-1.4h9.9c2.2,0,3.7,1.1,4.6,3.3l3.7,10.2c1.7-2.4,3.6-4.6,5.7-6.7
		c2.1-2.1,5.4-4.2,9.8-6.3c4.4-2.1,9.1-3.2,14-3.2c6.5,0,11.9,1,16.1,2.9c3.1,1.4,4.6,3.2,4.6,5.2c0,0.8-0.2,1.5-0.6,2.3l-9.7,17
		c-0.7,1.2-1.6,2-2.7,2.5c-1.1,0.5-2.2,0.4-3.2-0.1c-3.1-1-5.6-1.5-7.5-1.5c-4.7,0-8.6,1.1-11.9,3.4c-3.2,2.3-5.4,4.7-6.6,7.1V261
		c0,3.3-2,5-6.1,5h-20c-1.3,0-2.4-0.5-3.4-1.5S161.2,262.3,161.2,261z M252.6,119.6c-3.3-3.3-4.9-7.3-4.9-12s1.6-8.7,4.9-12
		c3.3-3.3,7.2-5,11.8-5c5,0,9.2,1.7,12.7,5c3.5,3.3,5.2,7.3,5.2,12s-1.7,8.7-5.2,12c-3.5,3.3-7.7,4.9-12.7,4.9
		C259.8,124.5,255.9,122.9,252.6,119.6z M249.2,261v-94.4c0-1.4,0.5-2.6,1.4-3.6c1-0.9,2.1-1.4,3.4-1.4h21.3c1.3,0,2.5,0.5,3.4,1.4
		c1,0.9,1.4,2.1,1.4,3.6V261c0,1.3-0.5,2.4-1.5,3.4s-2.1,1.5-3.4,1.5h-21.3c-1.3,0-2.4-0.5-3.4-1.5S249.2,262.3,249.2,261z
		 M305.3,232.9c0-9.5,3.9-17.4,11.8-23.6c7.9-6.2,18.6-9.3,32.2-9.3c3,0,6.2,0.2,9.3,0.7c3.2,0.5,5.6,0.9,7.3,1.3l2.4,0.8
		c0-0.3,0-0.5,0-0.8c0-5.3-1-9-2.9-11.3c-2-2.3-5.4-3.5-10.1-3.5c-4.4,0-9.3,0.4-14.9,1.3c-5.5,0.8-9.9,1.7-12.9,2.7
		c-0.6,0.2-1.1,0.3-1.7,0.3c-2.3,0-3.6-1.7-4-5l-2.3-13.6c-0.1-0.6-0.1-1.1-0.1-1.7c0-2.4,1.3-4,3.8-4.8c1-0.6,3.1-1.5,6.2-2.5
		c3.1-1,7.5-2.1,13.2-3.2c5.6-1.1,11-1.7,16-1.7c8,0,14.7,1,20,3c5.4,2,9.5,5.1,12.4,9.2c2.9,4.1,5,8.8,6.1,14.1
		c1.1,5.3,1.7,11.7,1.7,19.2V261c0,1.3-0.6,2.4-1.7,3.4c-1.1,1-2.3,1.5-3.7,1.5h-10.2c-2,0-3.6-1.2-4.8-3.7l-3.3-7
		c-9.8,8.8-20.6,13.3-32.3,13.3c-11.2,0-20.3-3.2-27.2-9.6C308.8,252.5,305.3,243.8,305.3,232.9z M336.4,232.9
		c0,3.9,1.2,7.1,3.7,9.7s5.7,3.8,9.7,3.8c3.8,0,7.5-1.2,11.2-3.6c3.6-2.4,5.9-4.5,6.9-6.5v-14.4c-4.7-2.1-9.6-3.2-14.6-3.2
		c-5.1,0-9.2,1.3-12.2,3.9C337.9,225.2,336.4,228.6,336.4,232.9z M424.3,261v-94.4c0-1.4,0.5-2.6,1.5-3.6c1-0.9,2.2-1.4,3.5-1.4h10
		c2.1,0,3.5,1,4.4,3.1l3.7,9.7c1.4-1.4,3-2.9,4.8-4.3c1.8-1.4,4.3-3.1,7.4-4.9c3.1-1.8,6.8-3.3,11.1-4.5c4.3-1.1,8.8-1.7,13.5-1.7
		c8,0,15,1.4,21.1,4.3c6.1,2.8,10.9,6.7,14.5,11.7c3.6,4.9,6.2,10.4,8,16.4c1.8,6,2.7,12.6,2.7,19.6V261c0,1.3-0.5,2.4-1.5,3.4
		c-1,1-2.1,1.5-3.4,1.5h-21.3c-1.4,0-2.6-0.5-3.6-1.5c-0.9-1-1.4-2.1-1.4-3.5v-51.6c0-6.8-1.7-12.2-5.1-16.2c-3.4-4-8.2-6-14.4-6
		c-6.1,0-11.3,1.7-15.6,5.1c-4.3,3.4-7.2,7.2-8.8,11.3V261c0,1.9-0.5,3.2-1.5,3.9c-1,0.7-2.7,1.1-5.2,1.1h-19.4
		c-1.3,0-2.4-0.5-3.5-1.5C424.9,263.5,424.3,262.3,424.3,261z M625.3,261V88.2c0-1.4,0.5-2.5,1.4-3.5c0.9-1,2.1-1.5,3.6-1.5H705
		c15.7,0,29.1,5.5,40.2,16.4c11.1,11,16.6,24.2,16.6,39.8c0,11.8-3.5,22.4-10.6,31.8c-7.1,9.4-16.5,16.5-28.1,21.2l35.9,66.1
		c0.9,1.7,1,3.4,0.1,5c-0.9,1.6-2.4,2.5-4.5,2.5h-27.4c-2,0-3.4-0.8-4.2-2.3l-34.7-68.8h-28.9v66.2c0,1.3-0.5,2.4-1.5,3.4
		c-1,1-2.2,1.5-3.4,1.5h-24.1c-1.4,0-2.6-0.5-3.6-1.5C625.8,263.6,625.3,262.4,625.3,261z M659.6,166.6H702c7,0,13-2.6,18.2-7.8
		c5.1-5.2,7.7-11.5,7.7-18.8c0-6.9-2.6-12.8-7.7-17.8c-5.1-5-11.2-7.5-18.2-7.5h-42.4V166.6z M774.8,213.4c0-9.7,2.6-18.7,7.7-27
		s12-15,20.8-20c8.8-5,17.9-7.4,27.5-7.4c9.6,0,18.8,2.5,27.6,7.4c8.8,5,15.8,11.6,20.9,20c5.1,8.4,7.7,17.4,7.7,27
		c0,15.1-5.7,28-17.1,38.9c-11.4,10.8-24.4,16.3-39.1,16.3c-14.7,0-27.7-5.4-39-16.3C780.5,241.4,774.8,228.5,774.8,213.4z
		 M805.9,213.4c0,7.5,2.4,13.8,7.2,19c4.8,5.2,10.7,7.8,17.7,7.8c7,0,12.9-2.6,17.7-7.8c4.9-5.2,7.3-11.5,7.3-19
		c0-7.3-2.4-13.5-7.3-18.6c-4.9-5.1-10.8-7.6-17.7-7.6c-7,0-12.9,2.5-17.7,7.6C808.3,199.8,805.9,206.1,805.9,213.4z M903.3,217.2
		v-50.6c0-1.4,0.5-2.6,1.5-3.6c1-0.9,2.1-1.4,3.4-1.4h21.3c1.4,0,2.5,0.5,3.5,1.4c1,0.9,1.5,2.1,1.5,3.6v51.3c0,7,1.7,12.4,5.1,16.4
		s8.1,6,14.1,6c5.2,0,9.8-2,13.7-6c4-4,6.4-8.5,7.2-13.5v-54.2c0-2,0.4-3.3,1.3-3.9c0.9-0.7,2.4-1,4.6-1h20.2c1.4,0,2.6,0.5,3.6,1.4
		c1,0.9,1.5,2.1,1.5,3.6V261c0,1.3-0.5,2.4-1.6,3.4c-1,1-2.2,1.5-3.5,1.5h-9.8c-2.3,0-4-1.3-5.1-4l-3.3-8.6c-0.2,0.2-0.8,0.8-2,1.9
		c-1.2,1.1-2,1.9-2.6,2.4c-0.6,0.5-1.6,1.3-3.1,2.4c-1.5,1.1-2.8,1.9-3.9,2.6c-1.2,0.6-2.7,1.4-4.5,2.2c-1.8,0.9-3.7,1.5-5.5,2
		c-1.8,0.5-3.9,0.9-6.3,1.2c-2.4,0.3-4.8,0.5-7.3,0.5c-7.8,0-14.6-1.4-20.4-4.2c-5.8-2.8-10.4-6.6-13.7-11.5
		c-3.3-4.9-5.8-10.3-7.4-16.2C904.1,230.6,903.3,224.2,903.3,217.2z M1036.3,261v-94.4c0-1.4,0.5-2.6,1.5-3.6c1-0.9,2.2-1.4,3.5-1.4
		h10c2.1,0,3.5,1,4.4,3.1l3.7,9.7c1.4-1.4,3-2.9,4.8-4.3c1.8-1.4,4.3-3.1,7.4-4.9c3.1-1.8,6.8-3.3,11.1-4.5
		c4.3-1.1,8.8-1.7,13.5-1.7c8,0,15,1.4,21.1,4.3c6.1,2.8,10.9,6.7,14.5,11.7c3.6,4.9,6.2,10.4,8,16.4c1.8,6,2.7,12.6,2.7,19.6V261
		c0,1.3-0.5,2.4-1.5,3.4c-1,1-2.1,1.5-3.4,1.5h-21.3c-1.4,0-2.6-0.5-3.6-1.5c-0.9-1-1.4-2.1-1.4-3.5v-51.6c0-6.8-1.7-12.2-5.1-16.2
		c-3.4-4-8.2-6-14.4-6c-6.1,0-11.3,1.7-15.6,5.1c-4.3,3.4-7.2,7.2-8.8,11.3V261c0,1.9-0.5,3.2-1.5,3.9c-1,0.7-2.7,1.1-5.2,1.1h-19.4
		c-1.3,0-2.4-0.5-3.5-1.5S1036.3,262.3,1036.3,261z M1162.7,184.8v-18c0-1.5,0.5-2.7,1.4-3.7c0.9-1,2-1.4,3.3-1.4h8.9v-28.3
		c0-1.2,0.5-2.3,1.5-3.3s2.2-1.4,3.4-1.4l21.4-0.3c1.3,0,2.4,0.5,3.3,1.4c0.9,1,1.4,2.1,1.4,3.3v28.5h22.9c1.4,0,2.6,0.5,3.6,1.4
		c0.9,1,1.4,2.2,1.4,3.7v18c0,1.4-0.5,2.6-1.4,3.6c-0.9,1-2.1,1.5-3.6,1.5h-22.9v42c0,3.3,0.7,5.6,2.1,6.7c1.4,1.1,3.4,1.7,5.9,1.7
		c3.1,0,7.4-0.9,12.7-2.8c3-1,4.9-0.1,5.7,2.7l5.2,15.9c0.3,0.6,0.4,1.2,0.4,1.7c0,0.7-0.2,1.3-0.5,1.8c-0.5,1.1-1.4,2-2.7,2.5
		c-0.6,0.3-2.5,1-5.6,2c-3.1,1-7.2,2-12.2,3c-5,1-9.4,1.5-13.3,1.5c-19.3,0-28.9-11.1-28.9-33.3v-45.4h-8.9c-1.3,0-2.4-0.5-3.3-1.6
		C1163.2,187.3,1162.7,186.1,1162.7,184.8z M1260.9,261v-94.4c0-1.4,0.5-2.6,1.5-3.6c1-0.9,2.1-1.4,3.5-1.4h9.9
		c2.2,0,3.7,1.1,4.6,3.3l3.7,10.2c1.7-2.4,3.6-4.6,5.7-6.7c2.1-2.1,5.4-4.2,9.8-6.3c4.4-2.1,9.1-3.2,14-3.2c6.5,0,11.9,1,16.1,2.9
		c3.1,1.4,4.6,3.2,4.6,5.2c0,0.8-0.2,1.5-0.6,2.3l-9.7,17c-0.7,1.2-1.6,2-2.7,2.5c-1.1,0.5-2.2,0.4-3.2-0.1c-3.1-1-5.6-1.5-7.5-1.5
		c-4.7,0-8.6,1.1-11.9,3.4c-3.2,2.3-5.4,4.7-6.6,7.1V261c0,3.3-2,5-6.1,5h-20c-1.3,0-2.4-0.5-3.4-1.5S1260.9,262.3,1260.9,261z
		 M1341.2,213.7c0-9.8,2.3-18.8,6.8-27.1c4.5-8.3,10.9-15,19.1-20.1c8.2-5.1,17.4-7.6,27.5-7.6c13.6,0,25.1,4.6,34.6,13.8
		c9.5,9.2,14.2,20.8,14.2,34.7c0,2.4-0.2,4.8-0.5,7.1c-0.1,1.3-0.6,2.3-1.7,3.1c-1,0.8-2.1,1.2-3.3,1.2H1371
		c0.4,5.5,2.9,10.4,7.5,14.7c4.6,4.4,10.5,6.5,17.6,6.5c7.5,0,14.2-2.1,20.3-6.2c3-1.7,5.3-1.6,6.9,0.2l10.6,12.7
		c0.9,1,1.4,2.1,1.5,3.3c0,1.3-0.5,2.5-1.7,3.6c-10.3,9.8-23.2,14.6-38.9,14.6c-15.5,0-28.2-5.3-38.4-15.9
		C1346.2,242,1341.2,229,1341.2,213.7z M1373.3,200.8h39.5c-0.4-4.8-2.5-9-6.2-12.5c-3.7-3.5-8-5.2-12.9-5.2
		c-5.2,0-9.7,1.7-13.6,5.1C1376.2,191.5,1373.9,195.7,1373.3,200.8z M1457.3,213.7c0-9.8,2.3-18.8,6.8-27.1
		c4.5-8.3,10.9-15,19.1-20.1c8.2-5.1,17.4-7.6,27.5-7.6c13.6,0,25.1,4.6,34.6,13.8c9.5,9.2,14.2,20.8,14.2,34.7
		c0,2.4-0.2,4.8-0.5,7.1c-0.1,1.3-0.6,2.3-1.7,3.1c-1,0.8-2.1,1.2-3.3,1.2h-66.8c0.4,5.5,2.9,10.4,7.5,14.7
		c4.6,4.4,10.5,6.5,17.6,6.5c7.5,0,14.2-2.1,20.3-6.2c3-1.7,5.3-1.6,6.9,0.2l10.6,12.7c0.9,1,1.4,2.1,1.5,3.3c0,1.3-0.5,2.5-1.7,3.6
		c-10.3,9.8-23.2,14.6-38.9,14.6c-15.5,0-28.2-5.3-38.4-15.9C1462.3,242,1457.3,229,1457.3,213.7z M1489.4,200.8h39.5
		c-0.4-4.8-2.5-9-6.2-12.5c-3.7-3.5-8-5.2-12.9-5.2c-5.2,0-9.7,1.7-13.6,5.1C1492.3,191.5,1490,195.7,1489.4,200.8z"/>
</defs>
<clipPath id="SVGID_2_">
	<use xlink:href="#SVGID_1_"  style="overflow:visible;"/>
</clipPath>
<linearGradient id="SVGID_3_" gradientUnits="userSpaceOnUse" x1="800.21" y1="-9.094947e-13" x2="800.21" y2="268.5488">
	<stop  offset="0" style="stop-color:#264BA0"/>
	<stop  offset="1" style="stop-color:#F2981F"/>
</linearGradient>
<rect class="st0" width="1600.4" height="268.5"/>
</svg>
