<?xml version="1.0" encoding="utf-8"?>
<!-- Generator: Adobe Illustrator 23.0.0, SVG Export Plug-In . SVG Version: 6.00 Build 0)  -->
<svg version="1.1" id="Layer_1" xmlns="http://www.w3.org/2000/svg" xmlns:xlink="http://www.w3.org/1999/xlink" x="0px" y="0px"
	 viewBox="0 0 365.7 33.34" style="enable-background:new 0 0 365.7 33.34;" xml:space="preserve">
<style type="text/css">
	.st0{fill:#FFFFFF;}
</style>
<g id="logo">
	<path class="st0" d="M0,0.58h9.98c3.02,0,5.42,0.64,7.21,1.93s2.69,3.37,2.69,6.26c0,3.22-1.34,5.53-4.02,6.9
		c4.58,0.81,6.86,3.51,6.86,8.11c0,2.7-0.94,4.88-2.81,6.51s-4.45,2.46-7.72,2.46H0V0.58z M7.33,13.18h0.58
		c1.64,0,2.86-0.29,3.67-0.86c0.81-0.57,1.21-1.51,1.21-2.81c0-2.18-1.62-3.28-4.88-3.28H7.33V13.18z M7.33,27.1h2.3
		c3.59,0,5.38-1.2,5.38-3.59c0-1.43-0.45-2.46-1.35-3.08c-0.9-0.62-2.24-0.94-4.04-0.94h-2.3V27.1z"/>
	<path class="st0" d="M26.95,0.58h11.51c3.09,0,5.62,0.83,7.57,2.48c1.95,1.65,2.92,4.01,2.92,7.08c0,2.37-0.59,4.35-1.77,5.95
		c-1.18,1.6-2.79,2.72-4.82,3.37l11.08,13.3h-9.32l-9.83-12.71v12.71h-7.33V0.58z M34.28,14.86h0.86c0.68,0,1.25-0.01,1.72-0.04
		c0.47-0.03,1-0.12,1.6-0.27c0.6-0.16,1.08-0.38,1.44-0.66c0.36-0.29,0.68-0.7,0.94-1.25c0.26-0.55,0.39-1.21,0.39-1.99
		c0-0.78-0.13-1.44-0.39-1.99c-0.26-0.55-0.57-0.96-0.94-1.25c-0.36-0.29-0.85-0.51-1.44-0.66c-0.6-0.16-1.13-0.25-1.6-0.27
		c-0.47-0.03-1.04-0.04-1.72-0.04h-0.86V14.86z"/>
	<path class="st0" d="M63.18,0.58v32.17h-7.33V0.58H63.18z"/>
	<path class="st0" d="M85.18,0.58l12.99,32.17h-7.88l-2.38-6.43H75.66l-2.38,6.43H65.4L78.39,0.58H85.18z M85.41,19.89l-3.59-9.36
		h-0.08l-3.59,9.36H85.41z"/>
	<path class="st0" d="M107.72,12.79v19.97h-7.33V0.58h7.33l12.79,19.97h0.08V0.58h7.33v32.17h-7.33l-12.79-19.97H107.72z"/>
	<path class="st0" d="M145.2,0.58h11.51c3.09,0,5.62,0.83,7.57,2.48c1.95,1.65,2.92,4.01,2.92,7.08c0,2.37-0.59,4.35-1.77,5.95
		c-1.18,1.6-2.79,2.72-4.82,3.37l11.08,13.3h-9.32l-9.83-12.71v12.71h-7.33V0.58z M152.53,14.86h0.86c0.68,0,1.25-0.01,1.72-0.04
		c0.47-0.03,1-0.12,1.6-0.27c0.6-0.16,1.08-0.38,1.44-0.66c0.36-0.29,0.68-0.7,0.94-1.25c0.26-0.55,0.39-1.21,0.39-1.99
		c0-0.78-0.13-1.44-0.39-1.99c-0.26-0.55-0.57-0.96-0.94-1.25c-0.36-0.29-0.85-0.51-1.44-0.66c-0.6-0.16-1.13-0.25-1.6-0.27
		c-0.47-0.03-1.04-0.04-1.72-0.04h-0.86V14.86z"/>
	<path class="st0" d="M172.65,16.65c0-4.65,1.59-8.59,4.76-11.82C180.58,1.61,184.4,0,188.88,0c4.5,0,8.32,1.61,11.47,4.82
		c3.15,3.21,4.72,7.16,4.72,11.84c0,4.71-1.55,8.67-4.64,11.88c-3.09,3.21-6.94,4.82-11.54,4.82c-4.71,0-8.59-1.59-11.64-4.78
		C174.18,25.38,172.65,21.41,172.65,16.65z M180.57,16.65c0,1.69,0.26,3.23,0.78,4.62c0.52,1.39,1.43,2.57,2.73,3.53
		c1.3,0.96,2.9,1.44,4.8,1.44c2.73,0,4.79-0.94,6.18-2.81c1.39-1.87,2.09-4.13,2.09-6.79c0-2.62-0.71-4.88-2.13-6.77
		c-1.42-1.88-3.46-2.83-6.14-2.83c-2.65,0-4.7,0.94-6.14,2.83S180.57,14.03,180.57,16.65z"/>
	<path class="st0" d="M234,0.58v20.75c0,3.95-1.07,6.94-3.2,8.97c-2.13,2.03-5.25,3.04-9.36,3.04c-4.11,0-7.23-1.01-9.36-3.04
		c-2.13-2.03-3.2-5.02-3.2-8.97V0.58h7.33v18.6c0,2.6,0.41,4.41,1.23,5.42c0.82,1.01,2.15,1.52,4,1.52s3.18-0.51,4-1.52
		c0.82-1.01,1.23-2.82,1.23-5.42V0.58H234z"/>
	<path class="st0" d="M246.59,12.79v19.97h-7.33V0.58h7.33l12.79,19.97h0.08V0.58h7.33v32.17h-7.33l-12.79-19.97H246.59z"/>
	<path class="st0" d="M268.55,7.02V0.58h22.62v6.43h-7.64v25.74h-7.33V7.02H268.55z"/>
	<path class="st0" d="M294.8,0.58h11.51c3.09,0,5.62,0.83,7.57,2.48c1.95,1.65,2.92,4.01,2.92,7.08c0,2.37-0.59,4.35-1.77,5.95
		c-1.18,1.6-2.79,2.72-4.82,3.37l11.08,13.3h-9.32l-9.83-12.71v12.71h-7.33V0.58z M302.13,14.86h0.86c0.68,0,1.25-0.01,1.72-0.04
		c0.47-0.03,1-0.12,1.6-0.27c0.6-0.16,1.08-0.38,1.44-0.66c0.36-0.29,0.68-0.7,0.94-1.25c0.26-0.55,0.39-1.21,0.39-1.99
		c0-0.78-0.13-1.44-0.39-1.99c-0.26-0.55-0.57-0.96-0.94-1.25c-0.36-0.29-0.85-0.51-1.44-0.66c-0.6-0.16-1.13-0.25-1.6-0.27
		c-0.47-0.03-1.04-0.04-1.72-0.04h-0.86V14.86z"/>
	<path class="st0" d="M342.1,0.58v6.43h-11.08v6.4h10.61v6.43h-10.61v6.47h11.08v6.43H323.7V0.58H342.1z"/>
	<path class="st0" d="M365.7,0.58v6.43h-11.08v6.4h10.61v6.43h-10.61v6.47h11.08v6.43h-18.41V0.58H365.7z"/>
</g>
</svg>
