 <!-- SVG Library -->
  <svg xmlns="http://www.w3.org/2000/svg">

    
      <path class="st0" d="M12.6,35.2v5.7c0,2.1,0,3.5,0.2,4.2c0.1,0.7,0.4,1.2,0.8,1.5s1.3,0.5,2.5,0.5H17v0.1H4.5v-0.1h0.7
		c1.2,0,2-0.1,2.4-0.4c0.4-0.3,0.7-0.8,0.9-1.4c0.1-0.6,0.2-2.1,0.2-4.3V26.5c0-2.2-0.1-3.6-0.2-4.2c-0.1-0.6-0.4-1.1-0.8-1.3
		c-0.4-0.2-1.3-0.4-2.7-0.4H4.5v-0.1c0,0,8.3,0,9.8,0c2.8,0,5,0.2,6.5,0.7c1.5,0.4,2.8,1.2,3.7,2.3c1,1.1,1.5,2.5,1.5,4.3
		c0,1.5-0.3,2.8-1,3.9c-0.7,1.1-1.6,2-2.8,2.6c-1.2,0.6-3.4,0.9-6.5,0.9H12.6z M12.6,35.1h1.9c1.6,0,2.8-0.2,3.8-0.5
		c1-0.3,1.8-1,2.4-2c0.6-1,1-3.1,1-4.6c0-2.2-0.6-4.8-1.7-5.8c-1.1-1-2.9-1.6-5.4-1.6c-0.9,0-1.6,0-2.1,0.1V35.1z" />
      <path class="st0" d="M56.6,47.2h-7.3c-1.3-0.9-3.3-2.9-6-6.8c-0.9-1.2-1.7-2.4-2.7-3.5c-0.9-1.1-1.6-1.8-1.9-2.1
		c-0.3-0.2-0.9-0.4-1.6-0.4H36v6.5c0,2.1,0.1,3.5,0.2,4.2c0.1,0.7,0.4,1.2,0.8,1.5c0.4,0.3,1.3,0.5,2.5,0.5h1.3v0.1h-13v-0.1h0.9
		c1.2,0,2-0.1,2.4-0.4c0.4-0.3,0.7-0.8,0.9-1.4c0.1-0.6,0.2-2.1,0.2-4.3V26.5c0-2.2-0.1-3.6-0.2-4.2c-0.1-0.6-0.4-1.1-0.8-1.3
		c-0.4-0.2-1.3-0.4-2.7-0.4H28v-0.1c0,0,8.5-0.1,10.1-0.1c2.6,0,4.7,0.2,6.3,0.7c1.6,0.5,2.9,1.3,3.9,2.4c1,1.1,1.5,2.4,1.5,3.9
		c0,1.8-0.7,3.3-2,4.6c-1.3,1.3-3.2,2-5.8,2.3c1.1,0.5,3,2.5,5.5,5.9c2.1,2.8,3.7,4.6,4.9,5.4C53.6,46.6,55,47,56.6,47.2L56.6,47.2z
		 M36,34.3c1,0,2-0.1,3.1-0.1c1.1-0.1,2-0.2,2.8-0.4c0.8-0.2,1.4-0.6,1.9-1.1c0.5-0.5,0.9-1.1,1.2-1.8c0.3-0.7,0.4-2,0.4-3.1
		c0-1.9-0.5-4.4-1.4-5.5c-1-1.2-3-1.7-6.2-1.7c-0.5,0-1.1,0-1.7,0.1V34.3z" />
      <path class="st0" d="M80.6,39.6L80.6,39.6l-0.5,7.6H58.4v-0.1H59c1.4,0,2.2-0.2,2.6-0.5c0.4-0.4,0.6-0.8,0.8-1.4
		c0.1-0.6,0.2-2,0.2-4.2V27.6c0-2.1-0.1-4.3-0.2-5c-0.1-0.7-0.4-1.1-0.8-1.4c-0.4-0.3-1.3-0.4-2.6-0.4v-0.1h18.6l0.6,6.8h-0.1
		c-0.4-1.9-1.4-4.1-2-4.9c-0.6-0.8-1.4-1.3-2.2-1.5c-0.9-0.2-1.8-0.3-3.7-0.3h-3.8v12.3h2.9c1.3,0,2.2-0.1,2.8-0.3
		c0.5-0.2,0.9-0.6,1-1c0.2-0.5,0.3-1.4,0.3-2.7h0.1v9.3h-0.1c0-1.5-0.1-3.4-0.4-3.9c-0.3-0.5-0.6-0.8-1.1-1
		c-0.5-0.2-1.3-0.2-2.5-0.2h-3v7.3c0,3.2,0.2,5.1,0.6,5.7c0.4,0.6,1.5,0.9,3.3,0.9h2c1.4,0,2.6-0.2,3.5-0.6s1.8-1.1,2.6-2.3
		C79.4,43.1,80.1,41.6,80.6,39.6z" />
      <path class="st0" d="M83.1,47.4v-8.7h0.2c1.1,5.7,3.8,9.4,8.1,9.4c1.9,0,3.4-0.5,4.4-1.6c1.1-1.1,1.6-3.1,1.6-4.5
		c0-1.4-0.5-2.5-1.4-3.4c-0.9-0.9-2.6-1.9-5.1-2.9c-2.2-0.9-3.8-1.8-4.9-2.5c-1.1-0.7-2-1.6-2.6-2.7c-0.6-1.1-0.9-2.3-0.9-3.6
		c0-1.9,0.7-3.6,2-4.8c1.3-1.3,3-1.9,5.1-1.9c1.2,0,2.2,0.2,3.2,0.6c1,0.4,4.1,0.8,4.2-0.1h0.1v7.1H97c-0.5-2.1-1.4-4.4-2.7-5.6
		s-2.8-2-4.5-2c-1.6,0-2.8,0.4-3.6,1.3c-0.8,0.9-1.1,2.7-1.1,3.7c0,1.3,0.5,2.3,1.4,3.2c0.9,0.9,2.6,1.9,5.1,3c2.3,1,4,1.9,5.1,2.5
		c1.1,0.6,1.9,1.5,2.6,2.6c0.6,1.1,1,2.4,1,3.9c0,2.3-0.8,4.2-2.3,5.7c-1.6,1.5-3.6,2.2-6.2,2.2c-3,0-8.4-2.6-8.4-0.8H83.1z" />
      <path class="st0" d="M102.2,26.5h-0.1l0.1-5.7H127l0.1,5.7l-0.1,0c-0.3-1.8-0.7-3.1-1.3-3.9c-0.5-0.8-1.1-1.3-1.7-1.5
		c-0.6-0.2-1.7-0.3-3.1-0.3h-4.4v20.1c0,2.1,0.1,3.5,0.2,4.2s0.4,1.2,0.8,1.5c0.4,0.3,1.3,0.5,2.5,0.5h1.3v0.1h-13.6v-0.1h1.4
		c1.2,0,2-0.1,2.4-0.4c0.4-0.3,0.7-0.8,0.9-1.4c0.1-0.6,0.2-2.1,0.2-4.3V20.9h-4c-1.8,0-2.9,0.1-3.5,0.3c-0.6,0.2-1.2,0.7-1.7,1.5
		C102.9,23.5,102.5,24.8,102.2,26.5z" />
      <path class="st0" d="M129,33.9c0-4.2,1.4-7.6,4.2-10.1c2.8-2.5,6.3-3.8,10.5-3.8c4.2,0,7.8,1.3,10.6,3.8c2.8,2.5,4.3,5.9,4.3,10.3
		c0,4.2-1.4,7.6-4.1,10.2c-2.7,2.6-6.3,3.9-10.7,3.9c-4.3,0-7.9-1.3-10.6-3.9C130.4,41.7,129,38.2,129,33.9z M133.6,34
		c0,4.4,0.9,8.5,2.6,10.7c1.7,2.2,4.4,3.3,7.9,3.3c3.1,0,5.5-1.1,7.3-3.3c1.8-2.2,2.7-6.3,2.7-10.7c0-4.2-0.9-8.3-2.6-10.6
		s-4.3-3.4-7.6-3.4c-3.3,0-5.8,1.1-7.5,3.3C134.5,25.6,133.6,29.7,133.6,34z" />
      <path class="st0" d="M185.3,48l-20-25.5v19.7c0,1.6,0.1,2.6,0.2,3.1c0.2,0.5,0.6,0.9,1.3,1.4c0.7,0.4,2.3,0.6,3.7,0.6v0.1h-10.1
		v-0.1c1.3-0.1,2.6-0.3,3.3-0.7c0.7-0.4,1.1-0.8,1.2-1.2c0.1-0.4,0.2-1.5,0.2-3.1V27c0-2.1,0.1-3.5-0.1-4.2
		c-0.2-0.7-0.6-1.2-1.1-1.4c-0.4-0.2-1.7-0.3-3.2-0.3V21h8l16.5,21.3V25.2c0-1.2-0.1-2-0.4-2.5c-0.2-0.5-0.8-0.9-1.5-1.1
		c-0.8-0.3-2.1-0.4-3.2-0.4V21h9.9v0.1c-1.2,0.1-2.5,0.3-3.1,0.7c-0.7,0.3-1.1,0.8-1.3,1.3c-0.2,0.5-0.3,1.3-0.3,2.5V48H185.3z" />
      <path class="st0" d="M206.5,47.2L206.5,47.2l18.1-26.3h-8.5c-1.8,0-3,0.1-3.6,0.2c-0.6,0.1-1.2,0.7-1.9,1.6
		c-0.7,0.9-1.8,2.9-2.2,4.3h-0.1l0.9-6.3h19.4v0.1L211.4,47h8.3c2.8,0,4.6-0.2,5.4-0.7c0.8-0.4,1.5-1.2,2.1-2.3
		c0.6-1.1,1.1-2.1,1.4-3.2h0.1l-0.9,6.2H206.5z" />
      <path class="st0" d="M252.7,39.6L252.7,39.6l-0.5,7.6h-21.7v-0.1h0.6c1.4,0,2.2-0.2,2.6-0.5c0.4-0.4,0.6-0.8,0.8-1.4
		c0.1-0.6,0.2-2,0.2-4.2V27.6c0-2.1-0.1-4.3-0.2-5c-0.1-0.7-0.4-1.1-0.8-1.4c-0.4-0.3-1.3-0.4-2.6-0.4v-0.1h18.6l0.6,6.8h-0.1
		c-0.4-1.9-1.4-4.1-2-4.9c-0.6-0.8-1.4-1.3-2.2-1.5c-0.9-0.2-1.8-0.3-3.7-0.3h-3.8v12.3h2.9c1.3,0,2.2-0.1,2.8-0.3s0.9-0.6,1-1
		c0.2-0.5,0.3-1.4,0.3-2.7h0.1v9.3h-0.1c0-1.5-0.1-3.4-0.4-3.9c-0.3-0.5-0.6-0.8-1.1-1c-0.5-0.2-1.3-0.2-2.5-0.2h-3v7.3
		c0,3.2,0.2,5.1,0.6,5.7c0.4,0.6,1.5,0.9,3.3,0.9h2c1.4,0,2.6-0.2,3.5-0.6s1.8-1.1,2.6-2.3C251.6,43.1,252.2,41.6,252.7,39.6z" />
      <path class="st0" d="M277.1,40l-0.2,7.1h-22.2v-0.1h0.8c1.2,0,2-0.1,2.4-0.4c0.4-0.3,0.7-0.8,0.9-1.4c0.1-0.6,0.2-2.1,0.2-4.3V26.7
		c0-2.2-0.1-3.6-0.2-4.2c-0.1-0.6-0.4-1.1-0.8-1.3c-0.4-0.2-1.3-0.4-2.7-0.4h-0.6v-0.1h13.1v0.1h-1.2c-1.3,0-2.2,0.1-2.6,0.3
		c-0.4,0.2-0.7,0.6-0.8,1.2c-0.1,0.6-0.2,2-0.2,4.3v15.1c0,2,0.1,3.2,0.2,3.7c0.1,0.5,0.4,0.9,0.9,1.2c0.5,0.3,1.5,0.4,3.1,0.4h2.1
		c1.7,0,2.9-0.1,3.7-0.4c0.8-0.3,1.6-0.9,2.3-1.9C275.7,43.7,276.4,42.2,277.1,40L277.1,40z" />
      <path class="st0" d="M301.3,40l-0.2,7.1h-22.2v-0.1h0.8c1.2,0,2-0.1,2.4-0.4c0.4-0.3,0.7-0.8,0.9-1.4c0.1-0.6,0.2-2.1,0.2-4.3V26.7
		c0-2.2-0.1-3.6-0.2-4.2c-0.1-0.6-0.4-1.1-0.8-1.3c-0.4-0.2-1.3-0.4-2.7-0.4h-0.6v-0.1h13.1v0.1h-1.2c-1.3,0-2.2,0.1-2.6,0.3
		c-0.4,0.2-0.7,0.6-0.8,1.2c-0.1,0.6-0.2,2-0.2,4.3v15.1c0,2,0.1,3.2,0.2,3.7c0.1,0.5,0.4,0.9,0.9,1.2c0.5,0.3,1.5,0.4,3.1,0.4h2.1
		c1.7,0,2.9-0.1,3.7-0.4c0.8-0.3,1.6-0.9,2.3-1.9C300,43.7,300.6,42.2,301.3,40L301.3,40z" />
      <path class="st0" d="M325.3,39.6L325.3,39.6l-0.5,7.6h-21.7v-0.1h0.6c1.4,0,2.2-0.2,2.6-0.5c0.4-0.4,0.6-0.8,0.8-1.4
		c0.1-0.6,0.2-2,0.2-4.2V27.6c0-2.1-0.1-4.3-0.2-5c-0.1-0.7-0.4-1.1-0.8-1.4c-0.4-0.3-1.3-0.4-2.6-0.4v-0.1h18.6l0.6,6.8h-0.1
		c-0.4-1.9-1.4-4.1-2-4.9c-0.6-0.8-1.4-1.3-2.2-1.5c-0.9-0.2-1.8-0.3-3.7-0.3h-3.8v12.3h2.9c1.3,0,2.2-0.1,2.8-0.3s0.9-0.6,1-1
		c0.2-0.5,0.3-1.4,0.3-2.7h0.1v9.3h-0.1c0-1.5-0.1-3.4-0.4-3.9c-0.3-0.5-0.6-0.8-1.1-1c-0.5-0.2-1.3-0.2-2.5-0.2h-3v7.3
		c0,3.2,0.2,5.1,0.6,5.7c0.4,0.6,1.5,0.9,3.3,0.9h2c1.4,0,2.6-0.2,3.5-0.6s1.8-1.1,2.6-2.3C324.1,43.1,324.8,41.6,325.3,39.6z" />
      <path class="st0" d="M356,47.2h-7.3c-1.3-0.9-3.3-2.9-6-6.8c-0.9-1.2-1.7-2.4-2.7-3.5c-0.9-1.1-1.6-1.8-1.9-2.1
		c-0.3-0.2-0.9-0.4-1.6-0.4h-1.1v6.5c0,2.1,0.1,3.5,0.2,4.2c0.1,0.7,0.4,1.2,0.8,1.5c0.4,0.3,1.3,0.5,2.5,0.5h1.3v0.1h-13v-0.1h0.9
		c1.2,0,2-0.1,2.4-0.4c0.4-0.3,0.7-0.8,0.9-1.4c0.1-0.6,0.2-2.1,0.2-4.3V26.5c0-2.2-0.1-3.6-0.2-4.2c-0.1-0.6-0.4-1.1-0.8-1.3
		c-0.4-0.2-1.3-0.4-2.7-0.4h-0.5v-0.1c0,0,8.5-0.1,10.1-0.1c2.6,0,4.7,0.2,6.3,0.7c1.6,0.5,2.9,1.3,3.9,2.4c1,1.1,1.5,2.4,1.5,3.9
		c0,1.8-0.7,3.3-2,4.6c-1.3,1.3-3.2,2-5.8,2.3c1.1,0.5,3,2.5,5.5,5.9c2.1,2.8,3.7,4.6,4.9,5.4C353,46.6,354.4,47,356,47.2L356,47.2z
		 M335.5,34.3c1,0,2-0.1,3.1-0.1c1.1-0.1,2-0.2,2.8-0.4c0.8-0.2,1.4-0.6,1.9-1.1c0.5-0.5,0.9-1.1,1.2-1.8c0.3-0.7,0.4-2,0.4-3.1
		c0-1.9-0.5-4.4-1.4-5.5c-1-1.2-3-1.7-6.2-1.7c-0.5,0-1.1,0-1.7,0.1V34.3z" />
  

      <path d="M4,12h42c2.2,0,4,1.8,4,4v21c0,2.2-1.8,4-4,4H4c-2.2,0-4-1.8-4-4V16C0,13.8,1.8,12,4,12z" />
      <path opacity="0.6" d="M45.5,9h-41C3.7,9,3,8.3,3,7.5v0C3,6.7,3.7,6,4.5,6h41C46.3,6,47,6.7,47,7.5v0C47,8.3,46.3,9,45.5,9z" />
      <path opacity="0.4" d="M7.5,0h35C43.3,0,44,0.7,44,1.5v0C44,2.3,43.3,3,42.5,3h-35C6.7,3,6,2.3,6,1.5v0C6,0.7,6.7,0,7.5,0z" />
  

    
      <path d="M15 0c-8.3 0-15 6.7-15 15s6.7 15 15 15 15-6.7 15-15-6.7-15-15-15zm5.7 19.3c.4.4.4 1 0 1.4-.2.2-.4.3-.7.3s-.5-.1-.7-.3l-4.3-4.3-4.3 4.3c-.2.2-.4.3-.7.3s-.5-.1-.7-.3c-.4-.4-.4-1 0-1.4l4.3-4.3-4.3-4.3c-.4-.4-.4-1 0-1.4s1-.4 1.4 0l4.3 4.3 4.3-4.3c.4-.4 1-.4 1.4 0s.4 1 0 1.4l-4.3 4.3 4.3 4.3z" />
   

   
      <path d="M2.3 10.7l5 5c.4.4 1 .4 1.4 0s.4-1 0-1.4l-3.3-3.3h11.6c.6 0 1-.4 1-1s-.4-1-1-1h-11.6l3.3-3.3c.4-.4.4-1 0-1.4-.2-.2-.4-.3-.7-.3s-.5.1-.7.3l-5 5c-.2.2-.3.5-.3.7 0 .2.1.5.3.7z" />
   

   
      <path d="M1 5h20c.6 0 1-.4 1-1s-.4-1-1-1h-20c-.6 0-1 .4-1 1s.4 1 1 1zm20 5h-20c-.6 0-1 .4-1 1s.4 1 1 1h20c.6 0 1-.4 1-1s-.4-1-1-1zm0 7h-20c-.6 0-1 .4-1 1s.4 1 1 1h20c.6 0 1-.4 1-1s-.4-1-1-1z" />
  

  
      <path d="M21 10c-.6 0-1 .4-1 1v7h-18v-7c0-.6-.4-1-1-1s-1 .4-1 1v7c0 1.1.9 2 2 2h18c1.1 0 2-.9 2-2v-7c0-.6-.4-1-1-1zM5.5 7.5c.3 0 .5-.1.7-.3l3.8-3.8v9.6c0 .6.4 1 1 1s1-.4 1-1v-9.6l3.8 3.8c.2.2.5.3.7.3s.5-.1.7-.3c.4-.4.4-1 0-1.4l-5.5-5.5c-.1-.1-.2-.2-.3-.2-.2-.1-.5-.1-.8 0l-.3.2-5.5 5.5c-.4.4-.4 1 0 1.4.2.2.4.3.7.3z" />
  

      <path d="M24 1.3v21.3c0 .7-.6 1.3-1.3 1.3h-6.1v-9.3h3.1l.5-3.6h-3.6v-2.2c0-1.1.3-1.8 1.8-1.8h1.9v-3.2c-.3 0-1.5-.1-2.8-.1-2.8 0-4.7 1.7-4.7 4.8v2.7h-3.1v3.6h3.1v9.2h-11.5c-.7 0-1.3-.6-1.3-1.3v-21.4c0-.7.6-1.3 1.3-1.3h21.3c.8 0 1.4.6 1.4 1.3z" />
   

    
      <path d="M0 8v12h5v-12h-5zm2.5 10.8c-.4 0-.8-.3-.8-.8 0-.4.3-.8.8-.8s.8.3.8.8c0 .4-.4.8-.8.8zm3.5-.8h9.5c1.1 0 1.7-1 1.7-1.7 0-.3-.4-1-.4-1 1.4-.3 1.7-1.2 1.7-1.7-.1-.5-.3-.9-.5-1 1-.4 1.5-1.1 1.4-1.9-.1-.8-1-1.5-1-1.5 1-.6.9-1.5.9-1.5-.3-1.3-1.5-1.7-1.7-1.7h-5.6s.3-.5.3-2.4-1.3-3.6-2.6-3.6c0 0-.7.1-1 .3v3.5l-2.7 4.4v9.8z" />
  

  
      <path d="M21.5 7.6v.6c0 6.6-5 14.1-14 14.1-2.8 0-5.4-.8-7.6-2.2l1.2.1c2.3 0 4.4-.8 6.1-2.1-2.2 0-4-1.5-4.6-3.4.3.1.6.1.9.1.5 0 .9-.1 1.3-.2-2.1-.6-3.8-2.6-3.8-5 .7.4 1.4.6 2.2.6-1.3-.9-2.2-2.4-2.2-4.1 0-.9.2-1.8.7-2.5 2.4 3 6.1 5 10.2 5.2-.1-.4-.1-.7-.1-1.1 0-2.7 2.2-5 4.9-5 1.4 0 2.7.6 3.6 1.6 1-.3 2.1-.7 3-1.3-.4 1.2-1.1 2.1-2.2 2.7 1-.1 1.9-.4 2.8-.8-.6 1.1-1.4 2-2.4 2.7z" />
   
      <path d="M12 0c-6.7 0-12 5.3-12 12s5.3 12 12 12 12-5.3 12-12-5.3-12-12-12zm7.9 5.7c1.3 1.7 2.1 3.9 2.3 6.1-.4-.1-2.4-.4-4.7-.4-.8 0-1.5 0-2.3.1 0-.1-.1-.3-.3-.5l-.7-1.5c3.7-1.4 5.3-3.4 5.7-3.8zm-7.9-3.8c2.5 0 4.9.9 6.7 2.5-.3.4-1.9 2.3-5.2 3.6-1.6-2.9-3.3-5.3-3.7-5.9.6-.1 1.4-.2 2.2-.2zm-4.4 1c.4.6 2.1 3 3.7 5.8-4.4 1.2-8.2 1.2-9.2 1.2h-.1c.8-3.1 2.9-5.6 5.6-7zm-5.7 9.1v-.3h.3c1.2 0 5.6-.1 10.1-1.5l.8 1.6c-.1 0-.3 0-.4.1-5.1 1.6-7.9 6-8.3 6.7-1.6-1.7-2.5-4.1-2.5-6.6zm10.1 10.1c-2.3 0-4.4-.8-6.1-2.1.3-.5 2.4-4.4 7.9-6.3 1.3 3.6 2 6.7 2.1 7.6-1.2.6-2.6.8-3.9.8zm5.7-1.8c-.1-.8-.7-3.6-2-7.1.7-.1 1.3-.1 2-.1 2.1 0 3.7.4 4.1.5-.3 2.8-1.8 5.2-4.1 6.7z" />
   
      <path d="M23.6 6.3c-.3-1.2-1.4-2.2-2.6-2.3-3-.3-6-.3-9-.3s-6 0-9 .3c-1.2.1-2.3 1.1-2.6 2.3-.4 1.8-.4 3.8-.4 5.7 0 1.9 0 3.9.4 5.7.3 1.2 1.4 2.2 2.6 2.3 3 .3 6 .3 9 .3s6 0 9-.3c1.3-.1 2.3-1.1 2.6-2.4.4-1.7.4-3.7.4-5.6 0-1.9 0-3.9-.4-5.7zm-14.1 9v-6.6l6.5 3.3-6.5 3.3z" />
   
      <path d="M5.9 13.9c1.2-2-.4-2.5-.6-4-1-6.1 7.1-10.2 11.4-6 2.9 2.9 1 12-3.7 11-4.6-.9 2.2-8.1-1.4-9.5-3-1.1-4.6 3.6-3.2 5.9-.8 4-2.5 7.7-1.8 12.7 2.3-1.7 3.1-4.8 3.7-8.1 1.2.7 1.8 1.4 3.3 1.5 5.5.4 8.6-5.4 7.8-10.7-.7-4.7-5.5-7.1-10.6-6.6-4.1.4-8.1 3.7-8.3 8.3-.1 2.8.7 4.9 3.4 5.5z" />
   

      <path d="M7.8 13.5h4.6c-.6 2-2.5 3.4-4.6 3.4-2.7 0-4.9-2.2-4.9-4.9s2.2-4.9 4.9-4.9c1.1 0 2.1.3 3 1l1.8-2.4c-1.4-1.1-3-1.6-4.8-1.6-4.3 0-7.9 3.5-7.9 7.9s3.5 7.9 7.9 7.9 7.9-3.5 7.9-7.9v-1.5h-7.9v3zM21.7 11v-2.2h-2v2.2h-2.2v2h2.2v2.2h2v-2.2h2.2v-2z" />
    
      <path d="M13.3 9.6l1.6.8 2.5-.8v-1.4c0-3-2.4-5.4-5.4-5.4s-5.4 2.4-5.4 5.4v7.5c0 .7-.6 1.3-1.3 1.3s-1.3-.6-1.3-1.3v-3.2h-4v3.2c0 3 2.4 5.4 5.4 5.4s5.4-2.4 5.4-5.4v-7.5c0-.7.6-1.3 1.3-1.3s1.3.6 1.3 1.3l-.1 1.4zm6.6 2.9v3.2c0 .7-.6 1.3-1.3 1.3s-1.3-.6-1.3-1.3v-3.2l-2.5.8-1.6-.8v3.2c0 3 2.4 5.4 5.4 5.4s5.4-2.4 5.4-5.4v-3.2h-4.1z" />
  
      <path d="M22.2 0h-20.4c-1 0-1.8.8-1.8 1.7v20.7c0 1 .8 1.7 1.8 1.7h20.5c1 0 1.8-.8 1.8-1.7v-20.7c-.1-.9-.9-1.7-1.9-1.7zm-14.9 20.2h-3.6v-10.9h3.6v10.9zm-1.8-12.4c-1.2 0-2-.8-2-1.9 0-1.1.8-1.9 2.1-1.9 1.2 0 2 .8 2 1.9-.1 1.1-.9 1.9-2.1 1.9zm14.8 12.4h-3.6v-5.8c0-1.5-.5-2.5-1.8-2.5-1 0-1.6.7-1.9 1.3-.1.2-.1.6-.1.9v6.1h-3.6v-10.9h3.6v1.5c.5-.7 1.3-1.8 3.3-1.8 2.4 0 4.2 1.6 4.2 4.9v6.3z" />
   
      <path d="M17.6 13.8c0-3 2.5-4.5 2.6-4.6-1.4-2.1-3.6-2.3-4.4-2.4-1.9-.2-3.6 1.1-4.6 1.1-.9 0-2.4-1.1-4-1-2 0-3.9 1.2-5 3-2.1 3.7-.5 9.1 1.5 12.1 1 1.5 2.2 3.1 3.8 3 1.5-.1 2.1-1 3.9-1s2.4 1 4 1 2.7-1.5 3.7-2.9c1.2-1.7 1.6-3.3 1.7-3.4-.1-.1-3.2-1.3-3.2-4.9zm-3.1-9c.8-1 1.4-2.4 1.2-3.8-1.2 0-2.7.8-3.5 1.8-.8.9-1.5 2.3-1.3 3.7 1.4.1 2.8-.7 3.6-1.7z" />
   
      <path d="M12.573 4.94v-4.94h-3.188c-.072.183-.11.4-.11.622-.034.107-.072.184-.072.293-.328 1.829-1.28 3.11-2.892 3.807-.476.218-.914.253-1.39.218v3.987h2.342c.039 5.603.039 8.493.039 8.64v.332c.294 2.449 1.573 3.914 3.843 4.463.914.257 1.901.366 2.892.366 1.279-.036 2.525-.256 3.771-.659v-4.685c-.731.22-1.395.402-1.977.583-1.135.333-2.087.113-2.857-.619-.073-.11-.183-.257-.221-.403-.106-.586-.178-1.206-.178-1.795v-6.222h5.083v-3.988h-5.085z" />
   

  
      <path d="M12 2.2c3.2 0 3.6 0 4.8.1 1.2.1 1.8.2 2.2.4.6.2 1 .5 1.4.9.4.4.7.8.9 1.4.2.4.4 1.1.4 2.2.1 1.3.1 1.6.1 4.8s0 3.6-.1 4.8c-.1 1.2-.2 1.8-.4 2.2-.2.6-.5 1-.9 1.4-.4.4-.8.7-1.4.9-.4.2-1.1.4-2.2.4-1.3.1-1.6.1-4.8.1s-3.6 0-4.8-.1c-1.2-.1-1.8-.2-2.2-.4-.6-.2-1-.5-1.4-.9-.4-.4-.7-.8-.9-1.4-.2-.4-.4-1.1-.4-2.2-.1-1.3-.1-1.6-.1-4.8s0-3.6.1-4.8c0-1.2.2-1.9.3-2.3.2-.6.5-1 .9-1.4.5-.4.9-.6 1.4-.9.4-.1 1.1-.3 2.3-.4h4.8m0-2.2c-3.3 0-3.7 0-4.9.1-1.3 0-2.2.2-3 .5-.7.3-1.4.7-2.1 1.4-.7.7-1.1 1.4-1.4 2.1-.3.8-.5 1.7-.5 3-.1 1.2-.1 1.6-.1 4.9 0 3.3 0 3.7.1 4.9.1 1.3.3 2.1.6 2.9.2.8.6 1.5 1.3 2.2.7.7 1.3 1.1 2.1 1.4.8.3 1.6.5 2.9.6h5s3.7 0 4.9-.1c1.3-.1 2.1-.3 2.9-.6.8-.3 1.5-.7 2.1-1.4.7-.7 1.1-1.3 1.4-2.1.3-.8.5-1.6.6-2.9.1-1.2.1-1.6.1-4.9s0-3.7-.1-4.9c-.1-1.3-.3-2.1-.6-2.9-.2-.8-.6-1.5-1.3-2.2-.7-.7-1.3-1.1-2.1-1.4-.8-.3-1.6-.5-2.9-.6h-5zM12 5.8c-3.4 0-6.2 2.8-6.2 6.2s2.8 6.2 6.2 6.2 6.2-2.8 6.2-6.2-2.8-6.2-6.2-6.2zm0 10.2c-2.2 0-4-1.8-4-4s1.8-4 4-4 4 1.8 4 4-1.8 4-4 4z" />
      <circle class="st0" cx="18.4" cy="5.6" r="1.4" />
  
      <path d="M12 18c-.2 0-.5-.1-.7-.3l-11-10c-.4-.4-.4-1-.1-1.4.4-.4 1-.4 1.4-.1l10.4 9.4 10.3-9.4c.4-.4 1-.3 1.4.1.4.4.3 1-.1 1.4l-11 10c-.1.2-.4.3-.6.3z" />
    
         <path d="M11.9 5.9c.2 0 .5.1.7.3l11 10c.4.4.4 1 .1 1.4-.4.4-1 .4-1.4.1l-10.4-9.4-10.3 9.4c-.4.4-1 .3-1.4-.1-.4-.4-.3-1 .1-1.4l11-10c.1-.2.4-.3.6-.3z" />
   
   
         <path d="M30 72c-.3 0-.6-.1-.8-.4l-29-34c-.3-.4-.3-.9 0-1.3l29-36c.3-.4 1-.5 1.4-.2.4.3.5 1 .2 1.4l-28.5 35.5 28.5 33.4c.4.4.3 1.1-.1 1.4-.2.1-.5.2-.7.2z" />
   
      <path d="M1 0c.3 0 .6.1.8.4l29 34c.3.4.3.9 0 1.3l-29 36c-.3.4-1 .5-1.4.2-.4-.3-.5-1-.2-1.4l28.5-35.5-28.5-33.4c-.4-.4-.3-1.1.1-1.4.2-.1.5-.2.7-.2z" />
    
    
      <path d="M20.7 10.3l-8-8c-.4-.4-1-.4-1.4 0l-8 8c-.4.4-.4 1 0 1.4s1 .4 1.4 0l6.3-6.3v15.6c0 .6.4 1 1 1s1-.4 1-1v-15.6l6.3 6.3c.2.2.5.3.7.3s.5-.1.7-.3c.4-.4.4-1 0-1.4z" />
  
      <path d="M7 30v-30l22 15z" />
  

   
      <path fill="#000" d="M135 36.2c0 2.1-1.7 3.8-3.8 3.8h-127.4c-2.1 0-3.8-1.7-3.8-3.8v-32.3c0-2.2 1.7-3.9 3.8-3.9h127.3c2.1 0 3.8 1.7 3.8 3.8l.1 32.4z" />
      <path fill="#ffffff" d="M30.1 19.8c0-3.2 2.6-4.8 2.8-4.9-1.5-2.2-3.9-2.5-4.7-2.5-2-.2-3.9 1.2-4.9 1.2s-2.6-1.2-4.2-1.1c-2.1 0-4.1 1.3-5.2 3.2-2.3 3.9-.6 9.7 1.6 12.9 1.1 1.6 2.4 3.3 4 3.2 1.6-.1 2.2-1 4.2-1 1.9 0 2.5 1 4.2 1s2.8-1.6 3.9-3.1c1.3-1.8 1.8-3.5 1.8-3.6-.1-.2-3.4-1.5-3.5-5.3zM26.9 10.3c.9-1.1 1.5-2.6 1.3-4.1-1.3.1-2.8.9-3.8 1.9-.8.9-1.5 2.5-1.3 3.9 1.5.2 2.9-.6 3.8-1.7zM53.6 31.5h-2.3l-1.2-3.9h-4.3l-1.2 3.9h-2.2l4.3-13.3h2.6l4.3 13.3zm-3.8-5.5l-1.1-3.5c-.2-.4-.4-1.2-.7-2.5-.1.6-.3 1.4-.6 2.5l-1.2 3.5h3.6zM64.7 26.6c0 1.6-.4 2.9-1.3 3.9-.8.8-1.8 1.3-2.9 1.3-1.3 0-2.2-.5-2.7-1.4v5.1h-2.1v-10.4c0-1 0-2.1-.1-3.2h1.9l.1 1.5c.7-1.1 1.8-1.7 3.2-1.7 1.1 0 2.1.4 2.8 1.3.7.9 1.1 2.1 1.1 3.6zm-2.2.1c0-.9-.2-1.7-.6-2.3-.5-.6-1.1-.9-1.9-.9-.5 0-1 .2-1.4.5-.4.3-.7.8-.8 1.4-.1.3-.1.5-.1.7v1.6c0 .7.2 1.3.6 1.8s1 .7 1.7.7c.8 0 1.4-.3 1.9-.9.4-.8.6-1.6.6-2.6zM75.7 26.6c0 1.6-.4 2.9-1.3 3.9-.8.8-1.8 1.3-2.9 1.3-1.3 0-2.2-.5-2.7-1.4v5.1h-2.1v-10.4c0-1 0-2.1-.1-3.2h1.9l.1 1.5c.7-1.1 1.8-1.7 3.2-1.7 1.1 0 2.1.4 2.8 1.3.7.9 1.1 2.1 1.1 3.6zm-2.2.1c0-.9-.2-1.7-.6-2.3-.5-.6-1.1-.9-1.9-.9-.5 0-1 .2-1.4.5-.4.3-.7.8-.8 1.4-.1.3-.1.5-.1.7v1.6c0 .7.2 1.3.6 1.8.4.3 1 .5 1.7.5.8 0 1.4-.3 1.9-.9.4-.6.6-1.4.6-2.4zM88 27.8c0 1.1-.4 2.1-1.2 2.8-.9.8-2.1 1.2-3.6 1.2-1.4 0-2.6-.3-3.4-.8l.5-1.8c.9.6 2 .8 3.1.8.8 0 1.4-.2 1.9-.5.4-.4.7-.8.7-1.5 0-.5-.2-1-.6-1.4-.4-.4-1-.7-1.8-1-2.4-.9-3.6-2.2-3.6-3.9 0-1.1.4-2 1.2-2.7.8-.7 1.9-1 3.3-1 1.2 0 2.2.2 3 .6l-.5 1.8c-.8-.4-1.6-.6-2.5-.6-.8 0-1.3.2-1.8.6-.4.3-.5.7-.5 1.2s.2 1 .6 1.3c.4.3 1 .7 1.9 1 1.1.5 2 1 2.5 1.6.6.6.8 1.4.8 2.3zM95.1 23.5h-2.3v4.7c0 1.2.4 1.8 1.2 1.8.4 0 .7 0 .9-.1l.1 1.6c-.4.2-1 .2-1.7.2-.8 0-1.5-.3-2-.8s-.7-1.4-.7-2.6v-4.8h-1.4v-1.6h1.4v-1.8l2.1-.6v2.4h2.3l.1 1.6zM105.7 26.6c0 1.5-.4 2.7-1.3 3.6-.9 1-2.1 1.5-3.5 1.5s-2.5-.5-3.4-1.4c-.8-.9-1.3-2.1-1.3-3.5 0-1.5.4-2.7 1.3-3.7.9-.9 2-1.4 3.5-1.4 1.4 0 2.5.5 3.4 1.4.9.9 1.3 2.1 1.3 3.5zm-2.2.1c0-.9-.2-1.6-.6-2.3-.4-.8-1.1-1.1-1.9-1.1-.9 0-1.5.4-2 1.1-.4.6-.6 1.4-.6 2.3s.2 1.6.6 2.3c.5.8 1.1 1.1 1.9 1.1.8 0 1.5-.4 1.9-1.2.5-.6.7-1.3.7-2.2zM112.6 23.8c-.2 0-.4-.1-.7-.1-.8 0-1.3.3-1.7.8s-.5 1.1-.5 1.9v5h-2.1v-6.6c0-1.1 0-2.1-.1-3h1.9l.1 1.8h.1c.2-.6.6-1.1 1.1-1.5.5-.3 1-.5 1.5-.5h.5v2.2h-.1zM122.2 26.3c0 .4 0 .7-.1 1h-6.4c0 .9.3 1.7.9 2.2.5.4 1.2.7 2.1.7.9 0 1.8-.2 2.6-.5l.3 1.5c-.9.4-2 .6-3.2.6-1.5 0-2.7-.4-3.5-1.3s-1.3-2.1-1.3-3.5.4-2.7 1.2-3.6c.8-1 1.9-1.5 3.4-1.5 1.4 0 2.4.5 3.1 1.5.6.6.9 1.7.9 2.9zm-2.1-.6c0-.6-.1-1.2-.4-1.6-.4-.6-.9-.9-1.7-.9-.7 0-1.3.3-1.7.9-.4.5-.6 1-.6 1.7l4.4-.1zM49 10c0 1.2-.4 2.1-1.1 2.7-.7.5-1.6.8-2.8.8-.6 0-1.1 0-1.5-.1v-6.4c.6-.1 1.2-.1 1.8-.1 1.1 0 2 .2 2.6.7.7.6 1 1.4 1 2.4zm-1.1 0c0-.8-.2-1.3-.6-1.8-.4-.4-1-.6-1.8-.6-.3 0-.6 0-.8.1v4.9h.7c.8 0 1.4-.2 1.9-.7.4-.4.6-1 .6-1.9zM54.9 11c0 .7-.2 1.3-.6 1.8s-1 .7-1.7.7-1.2-.2-1.7-.7c-.4-.5-.6-1-.6-1.7s.2-1.3.6-1.8 1-.7 1.7-.7 1.2.2 1.7.7c.4.5.6 1 .6 1.7zm-1.1.1c0-.4-.1-.8-.3-1.1-.2-.4-.5-.6-.9-.6s-.7.2-1 .6c-.2.3-.3.7-.3 1.1 0 .4.1.8.3 1.1.2.4.5.6 1 .6.4 0 .7-.2.9-.6.2-.3.3-.7.3-1.1zM62.8 8.7l-1.5 4.7h-1l-.6-2c-.2-.5-.3-1-.4-1.5-.1.5-.2 1-.4 1.5l-.6 2h-1l-1.4-4.7h1.1l.5 2.3.3 1.5c.2-.4.3-.9.5-1.5l.7-2.2h.9l.6 2.2c.2.5.3 1.1.4 1.6.1-.5.2-1 .3-1.6l.6-2.2 1-.1zM68.2 13.4h-1v-2.7c0-.8-.3-1.2-1-1.2-.3 0-.6.1-.8.3-.2.2-.3.5-.3.8v2.8h-1v-4.7h.9v.7c.1-.2.3-.4.5-.6.3-.2.6-.3.9-.3.4 0 .8.1 1.1.4.4.3.5.9.5 1.6v2.9h.2zM71.1 13.4h-1v-6.9h1v6.9zM77.3 11c0 .7-.2 1.3-.6 1.8-.4.5-1 .7-1.7.7s-1.2-.2-1.7-.7c-.4-.5-.6-1-.6-1.7s.2-1.3.6-1.8c.4-.5 1-.7 1.7-.7s1.2.2 1.7.7c.4.5.6 1 .6 1.7zm-1.1.1c0-.4-.1-.8-.3-1.1-.2-.4-.5-.6-.9-.6s-.7.2-1 .6c-.2.3-.3.7-.3 1.1 0 .4.1.8.3 1.1.2.4.5.6 1 .6.4 0 .7-.2.9-.6.2-.3.3-.7.3-1.1zM82.3 13.4h-.9l-.1-.5c-.3.4-.8.7-1.4.7-.4 0-.8-.1-1.1-.4-.2-.3-.4-.6-.4-1 0-.6.2-1 .7-1.3.5-.3 1.2-.5 2-.4v-.1c0-.6-.3-.9-1-.9-.5 0-.9.1-1.2.3l-.1-.8c.4-.3 1-.4 1.6-.4 1.2 0 1.8.6 1.8 1.9v1.7c.1.6.1 1 .1 1.2zm-1.1-1.6v-.7c-1.2 0-1.7.3-1.7.9 0 .2.1.4.2.6.1.1.3.2.5.2s.4-.1.6-.2c.2-.1.3-.3.4-.6v-.2zM88.3 13.4h-.9v-.8c-.3.6-.8.9-1.5.9-.6 0-1-.2-1.4-.7-.4-.4-.6-1-.6-1.7 0-.8.2-1.4.6-1.9.4-.4.9-.7 1.5-.7s1.1.2 1.3.6v-2.7h1v5.6c-.1.6 0 1 0 1.4zm-1.1-2v-1.1c-.1-.3-.2-.5-.4-.6-.2-.2-.4-.3-.7-.3-.4 0-.7.2-.9.5-.2.3-.3.7-.3 1.2s.1.8.3 1.1c.2.3.5.5.9.5.3 0 .6-.1.8-.4.2-.2.3-.5.3-.9zM97.2 11c0 .7-.2 1.3-.6 1.8-.4.5-1 .7-1.7.7s-1.2-.2-1.7-.7c-.4-.5-.6-1-.6-1.7s.2-1.3.6-1.8 1-.7 1.7-.7 1.2.2 1.7.7c.4.5.6 1 .6 1.7zm-1 .1c0-.4-.1-.8-.3-1.1-.2-.4-.5-.6-.9-.6s-.7.2-1 .6c-.2.3-.3.7-.3 1.1 0 .4.1.8.3 1.1.2.4.5.6 1 .6.4 0 .7-.2.9-.6.2-.3.3-.7.3-1.1zM102.9 13.4h-1v-2.7c0-.8-.3-1.2-1-1.2-.3 0-.6.1-.8.3s-.3.5-.3.8v2.8h-1v-4.7h.9v.7c.1-.2.3-.4.5-.6.3-.2.6-.3 1-.3s.8.1 1.1.4c.4.3.5.9.5 1.6v2.9h.1zM109.9 9.5h-1.2v2.3c0 .6.2.9.6.9h.5v.8c-.2.1-.5.1-.8.1-.4 0-.7-.1-1-.4-.2-.3-.3-.7-.3-1.3v-2.4h-.7v-.8h.7v-.9l1-.3v1.2h1.2v.8zM115.5 13.4h-1v-2.7c0-.8-.3-1.3-.9-1.3-.5 0-.8.2-1 .7v3.2h-1v-6.9h1v2.8c.3-.5.8-.8 1.4-.8.4 0 .8.1 1.1.4.4.4.5.9.5 1.6v3h-.1zM121.2 10.9v.5h-3.2c0 .5.2.8.5 1.1.3.2.6.3 1 .3.5 0 .9-.1 1.3-.2l.2.7c-.4.2-1 .3-1.6.3-.7 0-1.3-.2-1.7-.6s-.6-1-.6-1.7.2-1.3.6-1.8c.4-.5 1-.8 1.6-.8.7 0 1.2.3 1.5.8.3.3.4.8.4 1.4zm-1-.3c0-.3-.1-.6-.2-.8-.2-.3-.5-.4-.8-.4s-.6.1-.8.4c-.2.2-.3.5-.3.8h2.1z" />
   
      <path d="M130 40h-125c-2.8 0-5-2.2-5-5v-30c0-2.8 2.2-5 5-5h125c2.8 0 5 2.2 5 5v30c0 2.8-2.2 5-5 5z" fill="#000" />
      <path fill="#FFFFFF" d="M44.5 13.2c.9 0 1.7-.3 2.3-.9.5-.5.8-1.2.8-2.1v-.6h-3.1v.9h2.2c-.1.4-.2.8-.5 1-.4.4-1 .6-1.6.6-.6 0-1.1-.2-1.6-.6-.4-.4-.7-1-.7-1.7s.2-1.2.7-1.7c.4-.4 1-.6 1.6-.6.7 0 1.2.2 1.6.7l.1.1.7-.7-.1-.1c-.2-.3-.6-.5-1-.7-.4-.2-.8-.3-1.3-.3-.9 0-1.7.3-2.3.9-.6.6-.9 1.4-.9 2.3s.3 1.7.9 2.3c.5.9 1.3 1.2 2.2 1.2zM52.1 12.2h-2.7v-1.7h2.5v-1h-2.5v-1.7h2.7v-.9h-3.7v6.2h3.7zM55.4 13.1v-5.3h1.7v-.9h-4.4v.9h1.7v5.3zM59.8 6.9h1v6.2h-1zM64.2 13.1v-5.3h1.7v-.9h-4.3v.9h1.7v5.3zM71.4 13.2c.9 0 1.7-.3 2.3-.9.6-.6.9-1.4.9-2.3 0-.9-.3-1.7-.9-2.3-.6-.6-1.4-.9-2.3-.9-.9 0-1.7.3-2.3.9-.6.6-.9 1.4-.9 2.3s.3 1.7.9 2.3c.6.6 1.4.9 2.3.9zm-1.5-4.9c.4-.4.9-.6 1.6-.6.6 0 1.1.2 1.6.6.4.4.6 1 .6 1.7s-.2 1.2-.6 1.7c-.4.4-.9.6-1.6.6-.6 0-1.1-.2-1.6-.6-.4-.4-.6-1-.6-1.7s.1-1.2.6-1.7zM76.4 9.3v-.9l2.9 4.7h1v-6.2h-1v3.6l.1.9-2.8-4.5h-1.1v6.2h.9zM123.7 22l-2.1 5.4h-.1l-2.2-5.4h-2l3.3 7.6-1.9 4.2h2l5.1-11.8zM106.9 17.5h1.9v12.5h-1.9zM113.4 21.7c-1.4 0-2.8.6-3.3 1.9l1.7.7c.4-.7 1-.9 1.7-.9 1 0 1.9.6 2 1.6v.1c-.3-.2-1.1-.5-1.9-.5-1.8 0-3.6 1-3.6 2.8 0 1.7 1.5 2.8 3.1 2.8 1.3 0 1.9-.6 2.4-1.2h.1v1h1.8v-4.8c-.2-2.2-1.9-3.5-4-3.5zm-.2 6.9c-.6 0-1.5-.3-1.5-1.1 0-1 1.1-1.3 2-1.3.8 0 1.2.2 1.7.4-.2 1.2-1.2 2-2.2 2zM58.8 21.8c-2.4 0-4.3 1.8-4.3 4.3 0 2.4 1.9 4.3 4.3 4.3s4.3-1.8 4.3-4.3c0-2.6-1.9-4.3-4.3-4.3zm0 6.8c-1.3 0-2.4-1.1-2.4-2.6s1.1-2.6 2.4-2.6c1.3 0 2.4 1 2.4 2.6 0 1.5-1.1 2.6-2.4 2.6zM68.1 21.8c-2.4 0-4.3 1.8-4.3 4.3 0 2.4 1.9 4.3 4.3 4.3s4.3-1.8 4.3-4.3c0-2.6-1.9-4.3-4.3-4.3zm0 6.8c-1.3 0-2.4-1.1-2.4-2.6s1.1-2.6 2.4-2.6 2.4 1 2.4 2.6c0 1.5-1.1 2.6-2.4 2.6zM82.6 17.5h1.9v12.5h-1.9zM93.1 24.5c-.4-1-1.4-2.7-3.6-2.7s-4 1.7-4 4.3c0 2.4 1.8 4.3 4.2 4.3 1.9 0 3.1-1.2 3.5-1.9l-1.4-1c-.5.7-1.1 1.2-2.1 1.2s-1.6-.4-2.1-1.3l5.7-2.4-.2-.5zm-5.8 1.4c0-1.6 1.3-2.5 2.2-2.5.7 0 1.4.4 1.6.9l-3.8 1.6zM47.7 23.1v1.8h4.3c-.1 1-.5 1.8-1 2.3-.6.6-1.6 1.3-3.3 1.3-2.7 0-4.7-2.1-4.7-4.8s2.1-4.8 4.7-4.8c1.4 0 2.5.6 3.3 1.3l1.3-1.3c-1.1-1-2.5-1.8-4.5-1.8-3.6 0-6.7 3-6.7 6.6 0 3.6 3.1 6.6 6.7 6.6 2 0 3.4-.6 4.6-1.9 1.2-1.2 1.6-2.9 1.6-4.2 0-.4 0-.8-.1-1.1h-6.2zM79.6 22.7c-.5-.5-1.3-1-2.3-1-2.1 0-4.1 1.9-4.1 4.3s1.9 4.2 4.1 4.2c1 0 1.8-.5 2.2-1h.1v.6c0 1.6-.9 2.5-2.3 2.5-1.1 0-1.9-.8-2.1-1.5l-1.6.7c.5 1.1 1.7 2.5 3.8 2.5 2.2 0 4-1.3 4-4.4v-7.6h-1.8v.7zm-2.2 5.9c-1.3 0-2.4-1.1-2.4-2.6s1.1-2.6 2.4-2.6c1.3 0 2.3 1.1 2.3 2.6s-1 2.6-2.3 2.6zM101.8 17.5h-4.5v12.5h1.9v-4.7h2.6c2.1 0 4.1-1.5 4.1-3.9s-2-3.9-4.1-3.9zm.1 6h-2.7v-4.3h2.7c1.4 0 2.2 1.2 2.2 2.1-.1 1.1-.9 2.2-2.2 2.2z" />
      <path d="M10.4 7.5c-.3.3-.4.8-.4 1.4v22.1c0 .6.2 1.1.5 1.4l.1.1 12.4-12.4v-.2l-12.6-12.4z" fill="#5BCAE8" />
      <path d="M27 24.3l-4.1-4.1v-.30000000000000004l4.1-4.1.1.1 4.9 2.8c1.4.8 1.4 2.1 0 2.9l-5 2.7z" fill="#F99B1C" />
      <path d="M27.1 24.2l-4.2-4.2-12.5 12.5c.5.5 1.2.5 2.1.1l14.6-8.4" fill="#C31E63" />
      <path d="M27.1 15.8l-14.6-8.3c-.9-.5-1.6-.4-2.1.1l12.5 12.4 4.2-4.2z" fill="#66BE69" />
   
      <path d="M13 2c0 .6.4 1 1 1h6v16h-6c-.6 0-1 .4-1 1s.4 1 1 1h6c1.1 0 2-.9 2-2v-16c0-1.1-.9-2-2-2h-6c-.6 0-1 .4-1 1zm-6.5 3.5c0 .3.1.5.3.7l3.8 3.8h-9.6c-.6 0-1 .4-1 1s.4 1 1 1h9.6l-3.8 3.8c-.2.2-.3.5-.3.7s.1.5.3.7c.4.4 1 .4 1.4 0l5.5-5.5c.1-.1.2-.2.2-.3.1-.2.1-.5 0-.8l-.2-.3-5.5-5.5c-.4-.4-1-.4-1.4 0-.2.2-.3.4-.3.7z" />
   
      <path d="M11 22c-.1 0-.3 0-.4-.1-.4-.1-.6-.5-.6-.9v-4h-7.8c-1.2 0-2.2-1-2.2-2.2v-11.6c0-1.2 1-2.2 2.2-2.2h17.7c1.1 0 2.1 1 2.1 2.2v11.7c0 1.2-1 2.2-2.2 2.2h-3.4l-4.7 4.7c-.2.1-.4.2-.7.2zm-8.8-19c-.1 0-.2.1-.2.2v11.7s.1.1.2.1h8.8c.6 0 1 .4 1 1v2.6l3.3-3.3c.2-.2.4-.3.7-.3h3.8c.1 0 .2-.1.2-.2v-11.6c0-.1-.1-.2-.2-.2h-17.6zM5 6h6v2h-6zM5 10h10v2h-10z" />
  

   
      <path d="M19.8 2h-17.6c-1.2 0-2.2 1-2.2 2.2v13.5c0 1.3 1 2.3 2.2 2.3h17.5c1.2 0 2.2-1 2.2-2.2v-13.6c.1-1.2-.9-2.2-2.1-2.2zm-17.6 2h17.5c.2 0 .3.1.3.2v.3l-9 6.3-9-6.3v-.3c0-.1.1-.2.2-.2zm17.6 14h-17.6c-.1 0-.2-.1-.2-.2v-10.9l8.1 5.7c.3.2.6.3.9.3.3 0 .6-.1.9-.3l8.1-5.7v10.9c0 .1-.1.2-.2.2z" />
   

      <polyline stroke-width="2" stroke-linecap="round" stroke-linejoin="round" stroke-miterlimit="10" points="1,5 8,12 15,5"
        fill="none" />
   

  
      <path d="M13.7 13.3l-5-5c-.4-.4-1-.4-1.4 0s-.4 1 0 1.4l3.3 3.3h-11.6c-.6 0-1 .4-1 1s.4 1 1 1h11.6l-3.3 3.3c-.4.4-.4 1 0 1.4.2.2.4.3.7.3s.5-.1.7-.3l5-5c.2-.2.3-.5.3-.7s-.1-.5-.3-.7z" />
   


      <path d="M6.7 21.7l5-5c.4-.4.4-1 0-1.4s-1-.4-1.4 0l-3.3 3.3v-11.6c0-.6-.4-1-1-1s-1 .4-1 1v11.6l-3.3-3.3c-.4-.4-1-.4-1.4 0-.2.2-.3.4-.3.7 0 .3.1.5.3.7l5 5c.2.2.4.3.7.3s.5-.1.7-.3z" />
  
      <path d="M13.7 13.3l-5-5c-.4-.4-1-.4-1.4 0s-.4 1 0 1.4l3.3 3.3h-11.6c-.6 0-1 .4-1 1s.4 1 1 1h11.6l-3.3 3.3c-.4.4-.4 1 0 1.4.2.2.4.3.7.3s.5-.1.7-.3l5-5c.2-.2.3-.5.3-.7s-.1-.5-.3-.7z" />
    
  </svg>