<?xml version="1.0" encoding="utf-8"?>
<!-- Generator: Adobe Illustrator 23.0.0, SVG Export Plug-In . SVG Version: 6.00 Build 0)  -->
<svg version="1.1" id="title" xmlns="http://www.w3.org/2000/svg" xmlns:xlink="http://www.w3.org/1999/xlink" x="0px" y="0px"
	 viewBox="0 0 397.14 51.3" style="enable-background:new 0 0 397.14 51.3;" xml:space="preserve">
<style type="text/css">
	.st0{fill:#CDF2F2;}
</style>

	<path class="st0" d="M43.56,50.4l-2.34-29.34h-0.3L30.78,50.1h-6.72L13.92,21.06h-0.3L11.28,50.4H0L4.44,0.9h12l10.98,28.56
		L38.4,0.9h12l4.44,49.5H43.56z"/>
	<path class="st0" d="M104.46,50.4H88.92l-18.24-21v21H59.4V0.9h11.28v20.22L87.66,0.9h13.68L81.42,24.36L104.46,50.4z"/>
	<path class="st0" d="M104.76,21.18V10.02l14.1-9.12h5.34v49.5h-11.28V15.9L104.76,21.18z"/>
	<path class="st0" d="M164.82,0c2.68,0,5.3,0.39,7.86,1.17c2.56,0.78,4.46,1.55,5.7,2.31l1.8,1.2l-4.56,9
		c-0.36-0.24-0.86-0.55-1.5-0.93c-0.64-0.38-1.84-0.89-3.6-1.53c-1.76-0.64-3.4-0.96-4.92-0.96c-1.88,0-3.33,0.4-4.35,1.2
		c-1.02,0.8-1.53,1.88-1.53,3.24c0,0.68,0.24,1.31,0.72,1.89c0.48,0.58,1.3,1.2,2.46,1.86s2.18,1.19,3.06,1.59
		c0.88,0.4,2.24,1,4.08,1.8c3.2,1.36,5.93,3.21,8.19,5.55c2.26,2.34,3.39,4.99,3.39,7.95c0,2.84-0.51,5.32-1.53,7.44
		c-1.02,2.12-2.42,3.78-4.2,4.98c-1.78,1.2-3.75,2.09-5.91,2.67c-2.16,0.58-4.5,0.87-7.02,0.87c-2.16,0-4.28-0.22-6.36-0.66
		c-2.08-0.44-3.82-0.99-5.22-1.65c-1.4-0.66-2.66-1.31-3.78-1.95c-1.12-0.64-1.94-1.18-2.46-1.62l-0.78-0.66l5.64-9.48
		c0.48,0.4,1.14,0.91,1.98,1.53s2.33,1.45,4.47,2.49s4.03,1.56,5.67,1.56c4.76,0,7.14-1.62,7.14-4.86c0-0.68-0.17-1.31-0.51-1.89
		c-0.34-0.58-0.94-1.16-1.8-1.74c-0.86-0.58-1.62-1.04-2.28-1.38c-0.66-0.34-1.74-0.86-3.24-1.56c-1.5-0.7-2.61-1.23-3.33-1.59
		c-3-1.48-5.32-3.33-6.96-5.55c-1.64-2.22-2.46-4.61-2.46-7.17c0-4.44,1.64-8.07,4.92-10.89C156.88,1.41,160.62,0,164.82,0z"/>
	<path class="st0" d="M203.28,27.42c-2,0-3.72,0.74-5.16,2.22c-1.44,1.48-2.16,3.26-2.16,5.34c0,2.12,0.72,3.92,2.16,5.4
		c1.44,1.48,3.16,2.22,5.16,2.22c0.96,0,1.87-0.12,2.73-0.36c0.86-0.24,1.49-0.48,1.89-0.72l0.54-0.36l3.6,7.38
		c-0.28,0.2-0.67,0.45-1.17,0.75c-0.5,0.3-1.64,0.71-3.42,1.23c-1.78,0.52-3.69,0.78-5.73,0.78c-4.52,0-8.49-1.59-11.91-4.77
		s-5.13-6.99-5.13-11.43c0-4.48,1.71-8.33,5.13-11.55s7.39-4.83,11.91-4.83c2.04,0,3.92,0.24,5.64,0.72
		c1.72,0.48,2.94,0.96,3.66,1.44l1.02,0.72l-3.6,7.26C207.12,27.9,205.4,27.42,203.28,27.42z"/>
	<path class="st0" d="M217.26,2.46c1.24-1.24,2.72-1.86,4.44-1.86s3.2,0.62,4.44,1.86C227.38,3.7,228,5.18,228,6.9
		c0,1.72-0.62,3.2-1.86,4.44c-1.24,1.24-2.72,1.86-4.44,1.86s-3.2-0.62-4.44-1.86c-1.24-1.24-1.86-2.72-1.86-4.44
		C215.4,5.18,216.02,3.7,217.26,2.46z M216.24,19.62V50.4h10.62V19.62H216.24z"/>
	<path class="st0" d="M234.36,50.4V19.62h10.62v4.44h0.12c0.08-0.16,0.21-0.36,0.39-0.6c0.18-0.24,0.57-0.66,1.17-1.26
		c0.6-0.6,1.24-1.14,1.92-1.62c0.68-0.48,1.56-0.91,2.64-1.29c1.08-0.38,2.18-0.57,3.3-0.57c1.16,0,2.3,0.16,3.42,0.48
		c1.12,0.32,1.94,0.64,2.46,0.96l0.84,0.48l-4.44,9c-1.32-1.12-3.16-1.68-5.52-1.68c-1.28,0-2.38,0.28-3.3,0.84
		s-1.57,1.24-1.95,2.04s-0.65,1.48-0.81,2.04c-0.16,0.56-0.24,1-0.24,1.32v16.2H234.36z"/>
	<path class="st0" d="M266.79,46.74c-3.42-3.04-5.13-6.94-5.13-11.7c0-4.76,1.78-8.67,5.34-11.73c3.56-3.06,7.96-4.59,13.2-4.59
		c5.16,0,9.51,1.54,13.05,4.62s5.31,6.98,5.31,11.7c0,4.72-1.73,8.61-5.19,11.67c-3.46,3.06-7.85,4.59-13.17,4.59
		C274.68,51.3,270.21,49.78,266.79,46.74z M275.01,29.82c-1.38,1.36-2.07,3.1-2.07,5.22c0,2.12,0.66,3.85,1.98,5.19
		c1.32,1.34,3.06,2.01,5.22,2.01c2.08,0,3.79-0.68,5.13-2.04c1.34-1.36,2.01-3.08,2.01-5.16c0-2.12-0.69-3.86-2.07-5.22
		c-1.38-1.36-3.07-2.04-5.07-2.04C278.1,27.78,276.39,28.46,275.01,29.82z"/>
	<path class="st0" d="M319.92,27.42c-2,0-3.72,0.74-5.16,2.22c-1.44,1.48-2.16,3.26-2.16,5.34c0,2.12,0.72,3.92,2.16,5.4
		c1.44,1.48,3.16,2.22,5.16,2.22c0.96,0,1.87-0.12,2.73-0.36c0.86-0.24,1.49-0.48,1.89-0.72l0.54-0.36l3.6,7.38
		c-0.28,0.2-0.67,0.45-1.17,0.75c-0.5,0.3-1.64,0.71-3.42,1.23c-1.78,0.52-3.69,0.78-5.73,0.78c-4.52,0-8.49-1.59-11.91-4.77
		s-5.13-6.99-5.13-11.43c0-4.48,1.71-8.33,5.13-11.55s7.39-4.83,11.91-4.83c2.04,0,3.92,0.24,5.64,0.72
		c1.72,0.48,2.94,0.96,3.66,1.44l1.02,0.72l-3.6,7.26C323.76,27.9,322.04,27.42,319.92,27.42z"/>
	<path class="st0" d="M349.38,27.42c-2,0-3.72,0.74-5.16,2.22c-1.44,1.48-2.16,3.26-2.16,5.34c0,2.12,0.72,3.92,2.16,5.4
		c1.44,1.48,3.16,2.22,5.16,2.22c0.96,0,1.87-0.12,2.73-0.36c0.86-0.24,1.49-0.48,1.89-0.72l0.54-0.36l3.6,7.38
		c-0.28,0.2-0.67,0.45-1.17,0.75c-0.5,0.3-1.64,0.71-3.42,1.23c-1.78,0.52-3.69,0.78-5.73,0.78c-4.52,0-8.49-1.59-11.91-4.77
		s-5.13-6.99-5.13-11.43c0-4.48,1.71-8.33,5.13-11.55s7.39-4.83,11.91-4.83c2.04,0,3.92,0.24,5.64,0.72
		c1.72,0.48,2.94,0.96,3.66,1.44l1.02,0.72l-3.6,7.26C353.22,27.9,351.5,27.42,349.38,27.42z"/>
	<path class="st0" d="M365.37,46.74c-3.42-3.04-5.13-6.94-5.13-11.7c0-4.76,1.78-8.67,5.34-11.73c3.56-3.06,7.96-4.59,13.2-4.59
		c5.16,0,9.51,1.54,13.05,4.62s5.31,6.98,5.31,11.7c0,4.72-1.73,8.61-5.19,11.67c-3.46,3.06-7.85,4.59-13.17,4.59
		C373.26,51.3,368.79,49.78,365.37,46.74z M373.59,29.82c-1.38,1.36-2.07,3.1-2.07,5.22c0,2.12,0.66,3.85,1.98,5.19
		c1.32,1.34,3.06,2.01,5.22,2.01c2.08,0,3.79-0.68,5.13-2.04c1.34-1.36,2.01-3.08,2.01-5.16c0-2.12-0.69-3.86-2.07-5.22
		c-1.38-1.36-3.07-2.04-5.07-2.04C376.68,27.78,374.97,28.46,373.59,29.82z"/>
</svg>
